<svg xmlns="http://www.w3.org/2000/svg" viewBox="0 0 24 24" width="24" height="24" fill="currentColor">
	<path fill="none" d="M0 0h24v24H0z" />
	<path d="m 17,3 h 4 c 0.552285,0 1,0.4477153 1,1 v 12 l -5,5 H 3 C 2.4477153,21 2,20.552285 2,20 V 4 C 2,3.4477153 2.4477153,3 3,3 H 7 V 1 h 2 v 2 h 6 V 1 h 2 z M 15,5 H 9 V 7 H 7 V 5 H 4 V 9 H 20 V 5 h -3 v 2 h -2 z m 5,6 H 4 v 8 H 16.17 L 20,15.17 Z" />
	<text style="font-weight:bold;font-size:8px;line-height:1.25;font-family:sans-serif;" x="50%" y="18" text-anchor="middle"><!-- inserted by DatePicker --></text>
</svg>