<svg xmlns="http://www.w3.org/2000/svg" viewBox="0 0 24 24" width="24" height="24" fill="currentColor">
	<path d="M 17.25,15 14,11.75 V 15 H 3 C 2.73478,15 2.48043,15.1054 2.29289,15.2929 2.10536,15.4804 2,15.7348 2,16 v 4 c 0,0.26522 0.10536,0.51957 0.29289,0.70711 C 2.48043,20.89464 2.73478,21 3,21 h 18 c 0.2652,0 0.5196,-0.10536 0.7071,-0.29289 C 21.8946,20.51957 22,20.26522 22,20 V 16 C 22,15.7348 21.8946,15.4804 21.7071,15.2929 21.5196,15.1054 21.2652,15 21,15 Z M 16.7,17 H 20 v 2 H 4 V 17 H 15.5 V 15.8 Z M 2.0000001,5 H 22 V 3 H 2.0000001 Z m 2e-7,4 H 22 V 7 H 2.0000003 Z M 2,13 H 12.5 V 11 H 2 Z" />
</svg>
