<svg xmlns="http://www.w3.org/2000/svg" viewBox="0 0 24 24" width="24" height="24" fill="currentColor">
	<path d="m 14.800543,5.8771621 c 0.208681,0.1204816 0.229865,0.4744691 0.04732,0.7906532 -0.182553,0.3161841 -0.499707,0.4748321 -0.708388,0.3543502 -0.20868,-0.1204815 -0.229864,-0.4744691 -0.04732,-0.7906532 0.182549,-0.316184 0.499703,-0.4748321 0.708383,-0.3543502 z m 1.277289,0.7582705 C 16.267151,6.8247515 16.188087,7.2107605 15.90124,7.4976082 15.614392,7.784456 15.228383,7.8635191 15.039064,7.6742005 14.849745,7.4848819 14.928808,7.0988724 15.215656,6.8120243 15.502504,6.525176 15.888514,6.4461132 16.077832,6.6354326 Z m 1.143888,1.1137459 c 0.14874,0.2576307 -0.04712,0.6491771 -0.437472,0.8745449 -0.390351,0.2253689 -0.827372,0.1992162 -0.976115,-0.058414 -0.14874,-0.2576308 0.04712,-0.6491773 0.437473,-0.8745451 0.39035,-0.2253688 0.827372,-0.199216 0.976114,0.058414 z m 0.976693,1.5654804 c 0.08555,0.3192771 -0.23726,0.6831811 -0.721015,0.8128021 -0.483754,0.129621 -0.945266,-0.02412 -1.030817,-0.3434 -0.08555,-0.3192768 0.237259,-0.6831811 0.721014,-0.8128029 0.483755,-0.1296219 0.945268,0.024124 1.030818,0.3434008 z m 0.989959,2.0682041 c 0,0.453415 -0.55692,0.82098 -1.243916,0.82098 -0.686996,0 -1.243916,-0.367565 -1.243916,-0.82098 0,-0.453416 0.55692,-0.820981 1.243916,-0.820982 0.686997,0 1.243917,0.367567 1.243916,0.820982 z M 12.293176,7.3671261 C 9.917482,8.3939009 11.371828,10.057967 9.484634,11.085119 7.59744,12.112272 4.085983,12.256021 5.362955,14.910296 c 1.276972,2.654275 3.338612,-0.663874 5.434039,-1.805929 2.095425,-1.142057 3.885119,1.312568 5.180295,-0.544753 C 17.272464,10.702293 14.66887,6.3403514 12.293176,7.3671261 Z M 5.76282,17 H 20 V 5 H 4 V 18.3851 Z M 6.45455,19 2,22.5 V 4 C 2,3.44772 2.44772,3 3,3 h 18 c 0.5523,0 1,0.44772 1,1 v 14 c 0,0.5523 -0.4477,1 -1,1 z" />
</svg>