<svg xmlns="http://www.w3.org/2000/svg" viewBox="0 0 24 24" width="24" height="24" fill="currentColor">
	<path d="m 21.2,18 v -3.7 c 0,-0.8284 0.67157,-1.5 1.5,-1.5 h 0.5 v -1.6 h -0.5 c -0.82843,0 -1.5,-0.6716 -1.5,-1.5 V 6 c 0,-1.65685 -1.34315,-3 -3,-3 h -1 v 2 h 1 c 0.55228,0 1,0.44772 1,1 v 4.1 c 0,0.8858 0.57592,1.6372 1.37377,1.9 C 19.776,12.263 19.2,13.014 19.2,13.9 V 18 c 0,0.5523 -0.44772,1 -1,1 h -1 v 2 h 1 c 1.65685,0 3,-1.3431 3,-3 z M 2.8,18 v -3.7 c 0,-0.8284 -0.67157,-1.5 -1.5,-1.5 H 0.8 v -1.6 h 0.5000001 c 0.82843,0 1.5,-0.6716 1.5,-1.5 V 6 c 0,-1.65685 1.34315,-3 3,-3 h 1 v 2 h -1 c -0.55228,0 -1,0.44772 -1,1 v 4.1 c 0,0.8858 -0.57592,1.6372 -1.37377,1.9 0.79785,0.2628 1.37377,1.0142 1.37377,1.9 V 18 c 0,0.5523 0.44772,1 1,1 h 1 v 2 h -1 c -1.65685,0 -3,-1.3431 -3,-3 z" />
	<path style="stroke-width:0.735" d="m 12,19 c -0.605,0 -1.1,0.495 -1.1,1.1 0,0.605 0.495,1.1 1.1,1.1 0.605,0 1.1,-0.495 1.1,-1.1 C 13.1,19.495 12.605,19 12,19 Z m -3.1,0 c -0.605,0 -1.1,0.495 -1.1,1.1 0,0.605 0.495,1.1 1.1,1.1 0.605,0 1.1,-0.495 1.1,-1.1 C 10,19.495 9.505,19 8.9,19 Z m 6.2,0 c -0.605,0 -1.1,0.495 -1.1,1.1 0,0.605 0.495,1.1 1.1,1.1 0.605,0 1.1,-0.495 1.1,-1.1 0,-0.605 -0.495,-1.1 -1.1,-1.1 z" />
</svg>
