<svg xmlns="http://www.w3.org/2000/svg" viewBox="0 0 24 24" width="24" height="24" fill="currentColor">
	<g class="spinner">
		<path style="stroke-width:0.729" d="m 12.73285,23.212276 -10e-7,-4.393157 A 0.27932072,0.27932072 0 0 0 12.27476,18.604602 l -2.6367848,2.196577 a 0.27932072,0.27932072 0 0 0 -10e-8,0.429037 l 2.6367859,2.196577 a 0.27932072,0.27932072 0 0 0 0.458089,-0.214517 z" />
		<path style="stroke-width:0.729" d="m 11.298326,5.191792 -10e-7,-4.39315704 a 0.27932072,0.27932072 0 0 1 0.458086,-0.214519 L 14.393193,2.780699 a 0.27932072,0.27932072 0 0 1 2e-6,0.429033 l -2.636785,2.19658 a 0.27932072,0.27932072 0 0 1 -0.458084,-0.21452 z" />
		<path style="fill:none;stroke:currentColor;stroke-width:2;stroke-linecap:round;stroke-miterlimit:10;stroke-dashoffset:89.339;stroke-dasharray:none" d="M 12.5,2.9179688 C 12.333705,2.9010187 12.166975,2.8886442 12,2.8808594 6.9635919,2.8807514 2.8807499,6.9635934 2.8808594,12 c 0.00661,2.530252 1.064217,4.944009 2.9199218,6.664062" />
		<path style="fill:none;stroke:currentColor;stroke-width:2;stroke-linecap:round;stroke-miterlimit:10;stroke-dashoffset:89.339;stroke-dasharray:none" d="m 11.458261,21.082031 c 0.166295,0.01695 0.333025,0.02933 0.5,0.03711 C 16.994669,21.119249 21.077511,17.036407 21.077402,12 21.070802,9.469748 20.013185,7.055991 18.15748,5.335938" />
	</g>
</svg>
