<svg xmlns="http://www.w3.org/2000/svg" viewBox="0 0 16 16" version="1.1">
  <path fill="currentColor" d="m 11.249906,4.9977912 h 3.932 a 0.25,0.25 0 0 1 0.192,0.41 l -1.966,2.36 a 0.25,0.25 0 0 1 -0.384,0 l -1.966,-2.36 a 0.25,0.25 0 0 1 0.192,-0.41 z m -10.99999971,2 H 4.1819063 a 0.25,0.25 0 0 0 0.192,-0.41 l -1.966,-2.36 a 0.25,0.25 0 0 0 -0.384,0 l -1.96600001,2.36 a 0.25,0.25 0 0 0 0.192,0.41 z" />
  <path fill="currentColor" d="m 7.7159063,0.99779122 c -1.552,0 -2.94,0.70699998 -3.857,1.81799998 a 0.5,0.5 0 1 1 -0.771,-0.636 6.002,6.002 0 0 1 10.5449997,2.818 h -1.017 A 5.002,5.002 0 0 0 7.7159063,0.99779122 Z m -4.9,5.99999998 a 5.002,5.002 0 0 0 8.7569997,2.182 0.5,0.5 0 1 1 0.771,0.636 6.002,6.002 0 0 1 -10.5449997,-2.818 z" fill-rule="evenodd" />
</svg>
