<svg xmlns="http://www.w3.org/2000/svg" viewBox="0 0 11.997 11.999" version="1.1">
  <path d="m 9.0361772,8.0640108 2.5274408,3.0120872 a 0.25,0.25 0 0 1 -0.190663,0.410623 l -3.0715852,0.01093 A 0.25,0.25 0 0 1 8.0545393,11.203495 L 8.5986838,8.1804732 A 0.25,0.25 0 0 1 9.0361772,8.0640108 Z M 0.43342482,0.92309736 2.9608657,3.9351841 A 0.25,0.25 0 0 0 3.3983591,3.8187217 L 3.9425036,0.79569959 A 0.25,0.25 0 0 0 3.6956732,0.50153852 L 0.62408782,0.5124739 a 0.25,0.25 0 0 0 -0.190663,0.41062346 z" fill="currentColor" />
  <path fill-rule="evenodd" d="M 9.8287438,2.7856595 C 8.8311374,1.5967585 7.3973548,0.98793969 5.9568432,0.99961397 A 0.5,0.5 0 1 1 5.9484582,1.8078279e-4 6.002,6.002 0 0 1 10.56794,9.8894947 L 9.9142251,9.1104275 a 5.002,5.002 45 0 0 -0.085481,-6.324768 z m -7.745926,0.1031079 a 5.002,5.002 45 0 0 3.9573819,8.1108136 0.5,0.5 0 1 1 0.00839,0.999433 6.002,6.002 0 0 1 -4.6194819,-9.8893138 z" fill="currentColor" />
</svg>
